<svg xmlns="http://www.w3.org/2000/svg" viewBox="0 0 1440 320">
  <path fill="#0099ff" fill-opacity="0.2" d="M0,224L48,213.3C96,203,192,181,288,181.3C384,181,480,203,576,218.7C672,235,768,245,864,218.7C960,192,1056,128,1152,117.3C1248,107,1344,149,1392,170.7L1440,192L1440,320L1392,320C1344,320,1248,320,1152,320C1056,320,960,320,864,320C768,320,672,320,576,320C480,320,384,320,288,320C192,320,96,320,48,320L0,320Z"></path>
  <path fill="#007bff" fill-opacity="0.15" d="M0,288L48,272C96,256,192,224,288,213.3C384,203,480,213,576,213.3C672,213,768,203,864,186.7C960,171,1056,149,1152,149.3C1248,149,1344,171,1392,181.3L1440,192L1440,320L1392,320C1344,320,1248,320,1152,320C1056,320,960,320,864,320C768,320,672,320,576,320C480,320,384,320,288,320C192,320,96,320,48,320L0,320Z"></path>
</svg>